<svg width="32" height="32" viewBox="0 0 32 32" fill="none" xmlns="http://www.w3.org/2000/svg">
<rect width="32" height="32" rx="8" fill="#B19CD9"/>
<path d="M10.225 24.4187C9.5625 24.4187 9.00313 24.1906 8.54688 23.7344C8.09063 23.2781 7.8625 22.7188 7.8625 22.0562V13.8062C7.8625 13.1437 8.09063 12.5844 8.54688 12.1281C9.00313 11.6719 9.5625 11.4437 10.225 11.4437H12.4188V9.94375C12.4188 9.28125 12.6469 8.72187 13.1031 8.26562C13.5594 7.80937 14.1188 7.58125 14.7813 7.58125H17.2188C17.8813 7.58125 18.4406 7.80937 18.8969 8.26562C19.3531 8.72187 19.5813 9.28125 19.5813 9.94375V11.4437H21.775C22.4375 11.4437 22.9969 11.6719 23.4531 12.1281C23.9094 12.5844 24.1375 13.1437 24.1375 13.8062V22.0562C24.1375 22.7188 23.9094 23.2781 23.4531 23.7344C22.9969 24.1906 22.4375 24.4187 21.775 24.4187H10.225ZM10.225 22.0562H21.775V13.8062H10.225V22.0562ZM14.7813 11.4437H17.2188V9.94375H14.7813V11.4437ZM10.225 22.0562V13.8062V22.0562ZM14.8188 19.1125V21.3625H17.1813V19.1125H19.4313V16.75H17.1813V14.5H14.8188V16.75H12.5688V19.1125H14.8188Z" fill="white"/>
</svg>
